<svg xmlns="http://www.w3.org/2000/svg" width="240" height="240" viewBox="0 0 240 240">
    <rect width="100%" height="100%" rx="20" fill="#0ea5e9" />
    <g transform="translate(36,36)" fill="#ffffff">
        <path d="M84 8C41.3 8 8 37.7 8 74.4c0 17.2 7.7 33 20.6 44.6-3.5 12.6-11 29-13.8 34.9 0 0 9.8-2.6 18.9-7.3 18.7 6.6 40.1 6.7 58.9 0 18.8 6.7 40.2 6.6 58.9 0 0 0 11.5 4.7 17.9 6.9-2.9-5.8-11.6-23.6-15.3-35.9C208.3 107.4 216 91.6 216 74.4 216 37.7 182.7 8 140 8H84z" />
        <circle cx="64" cy="80" r="8" />
        <circle cx="104" cy="80" r="8" />
        <circle cx="144" cy="80" r="8" />
    </g>
</svg>
